# xmcd CD database file
#
# Track frame offsets:
#	182
#	15027
#	26187
#	43490
#	61567
#	78355
#	90740
#	108275
#	124790
#	136182
#
# Disc length: 1984 seconds
#
# Revision: 4
# Processed by: cddbd v1.5.2PL0 Copyright (c) Steve Scherf et al.
# Submitted via: CDex 1.70beta2
#
DISCID=7307be0a
DTITLE=Various Artist - Billboard Top Country Hits - 1988
DYEAR=1993
DGENRE=Country
TTITLE0=Rodney Crowell - I Couldn't Leave You If I Tried
TTITLE1=Vern Gosdin - Set 'Em Up Joe
TTITLE2=Dwight Yoakam - I Sang Dixie
TTITLE3=K.T. Oslin - Hold Me
TTITLE4=Keith Whitley - When You Say Nothing At All
TTITLE5=Tanya Tucker - Strong Enough To Bend
TTITLE6=Earl Thomas Conley - What I'd Say
TTITLE7=Randy Travis - I Told You So
TTITLE8=Highway 101 - Cry, Cry, Cry
TTITLE9=Dwight Yoakam and Buck Owens - Streets Of Bakersfield
EXTD=YEAR: 1993
EXTT0=
EXTT1=
EXTT2=
EXTT3=
EXTT4=
EXTT5=
EXTT6=
EXTT7=
EXTT8=
EXTT9=
PLAYORDER=
